<svg xmlns="http://www.w3.org/2000/svg" viewBox="0 0 256 255">
  <defs>
    <linearGradient id="pyBlue" x1="12.959%" y1="12.039%" x2="79.639%" y2="78.201%">
      <stop offset="0" stop-color="#387EB8"/>
      <stop offset="1" stop-color="#366994"/>
    </linearGradient>
    <linearGradient id="pyYellow" x1="19.128%" y1="20.579%" x2="90.742%" y2="88.429%">
      <stop offset="0" stop-color="#FFE052"/>
      <stop offset="1" stop-color="#FFC331"/>
    </linearGradient>
  </defs>
  <path d="M126.916.072c-64.832 0-60.784 28.115-60.784 28.115l.072 29.128h61.868v8.745H41.631S.145 61.355.145 126.77c0 65.417 36.21 63.097 36.21 63.097h21.61v-30.356s-1.165-36.21 35.632-36.21h61.362s34.475.557 34.475-33.319V33.97S194.67.072 126.916.072zm-34.072 19.512c6.07.007 10.802 4.735 10.802 10.602 0 5.864-4.736 10.602-10.802 10.602-6.055 0-10.802-4.738-10.802-10.602 0-5.865 4.747-10.595 10.802-10.602z" fill="url(#pyBlue)"/>
  <path d="M128.757 254.126c64.832 0 60.784-28.115 60.784-28.115l-.072-29.127H127.6v-8.745h86.441s41.486 4.705 41.486-60.712c0-65.416-36.21-63.096-36.21-63.096h-21.61v30.355s1.165 36.21-35.632 36.21h-61.362s-34.475-.557-34.475 33.32v56.013s-5.235 33.897 62.518 33.897zm34.072-19.512c-6.07-.007-10.802-4.735-10.802-10.602 0-5.864 4.736-10.602 10.802-10.602 6.055 0 10.802 4.738 10.802 10.602 0 5.865-4.747 10.595-10.802 10.602z" fill="url(#pyYellow)"/>
</svg>